<mxfile host="65bd71144e">
    <diagram id="WzwV2BFmRfP9f_zVP0Fr" name="Page-1">
        <mxGraphModel dx="1376" dy="719" grid="1" gridSize="12" guides="1" tooltips="1" connect="1" arrows="1" fold="1" page="0" pageScale="1" pageWidth="850" pageHeight="1100" math="0" shadow="0">
            <root>
                <mxCell id="0"/>
                <mxCell id="1" parent="0"/>
                <mxCell id="7" style="edgeStyle=none;html=1;entryX=0;entryY=0.5;entryDx=0;entryDy=0;fontFamily=Times New Roman;fontSize=22;" parent="1" source="2" target="3" edge="1">
                    <mxGeometry relative="1" as="geometry"/>
                </mxCell>
                <mxCell id="2" value="Input Data" style="rounded=0;whiteSpace=wrap;html=1;fontFamily=Times New Roman;fontSize=22;" parent="1" vertex="1">
                    <mxGeometry x="-204" y="288" width="300" height="120" as="geometry"/>
                </mxCell>
                <mxCell id="8" style="edgeStyle=none;html=1;fontFamily=Times New Roman;fontSize=22;" parent="1" source="3" target="4" edge="1">
                    <mxGeometry relative="1" as="geometry"/>
                </mxCell>
                <mxCell id="3" value="Data Preprocessing" style="rounded=0;whiteSpace=wrap;html=1;fontFamily=Times New Roman;fontSize=22;" parent="1" vertex="1">
                    <mxGeometry x="132" y="288" width="300" height="120" as="geometry"/>
                </mxCell>
                <mxCell id="9" style="edgeStyle=none;html=1;fontFamily=Times New Roman;fontSize=22;" parent="1" source="4" target="5" edge="1">
                    <mxGeometry relative="1" as="geometry"/>
                </mxCell>
                <mxCell id="4" value="Attribute Percentage&amp;nbsp;&amp;nbsp;" style="rounded=0;whiteSpace=wrap;html=1;fontFamily=Times New Roman;fontSize=22;" parent="1" vertex="1">
                    <mxGeometry x="492" y="288" width="300" height="132" as="geometry"/>
                </mxCell>
                <mxCell id="10" style="edgeStyle=none;html=1;entryX=1;entryY=0.5;entryDx=0;entryDy=0;fontFamily=Times New Roman;fontSize=22;" parent="1" source="5" target="6" edge="1">
                    <mxGeometry relative="1" as="geometry"/>
                </mxCell>
                <mxCell id="5" value="Insert Vector Data&amp;nbsp;" style="rounded=0;whiteSpace=wrap;html=1;fontFamily=Times New Roman;fontSize=22;" parent="1" vertex="1">
                    <mxGeometry x="492" y="462" width="300" height="126" as="geometry"/>
                </mxCell>
                <mxCell id="6" value="Generate Recomendations" style="rounded=0;whiteSpace=wrap;html=1;fontFamily=Times New Roman;fontSize=22;" parent="1" vertex="1">
                    <mxGeometry x="72" y="462" width="360" height="126" as="geometry"/>
                </mxCell>
            </root>
        </mxGraphModel>
    </diagram>
</mxfile>